<svg xmlns="http://www.w3.org/2000/svg" fill="none" viewBox="-1.25 -1.25 60 60" id="Cat-2--Streamline-Cyber" height="60" width="60">
    <desc>
        Cat 2 Streamline Icon: https://streamlinehq.com
    </desc>
    <path fill="#ffffff" d="m39.31538541666667 39.315625000000004 -6.339375 -10.330833333333334 7.5133333333333345 -3.7566666666666673V1.7489583333333334l-10.565625 7.04375H18.184207291666667l-10.565625 -7.04375v23.47916666666667l8.4525 4.22625 -6.104583333333334 9.86125 -2.347916666666667 16.43541666666667 11.739583333333336 -7.04375h10.565553125000001l11.739583333333336 7.04375 -2.347916666666667 -16.43541666666667Z" stroke-width="2.5"></path>
    <path fill="#afb2b3" d="m24.054166666666667 33.44583333333334 -7.982964583333334 -3.9914583333333336 -2.8175 4.4610416666666675L24.054166666666667 39.315625000000004l11.739583333333336 -5.869791666666668 -2.8175 -4.4610416666666675 -8.922083333333335 4.4610416666666675Z" stroke-width="2.5"></path>
    <path fill="#afb2b3" d="m7.618582291666668 25.228125 4.695833333333334 -2.347916666666667L24.053927083333335 28.75l11.739583333333336 -5.869791666666668 4.695833333333334 2.347916666666667 -16.43541666666667 8.217708333333334 -16.435344791666665 -8.217708333333334Z" stroke-width="2.5"></path>
    <path fill="#afb2b3" d="M29.923718750000003 42.8375H19.358165624999998l-10.800416666666667 6.574166666666668 -0.9391666666666668 6.339375 11.739583333333336 -7.04375h10.565553125000001l11.739583333333336 7.04375 -0.9391666666666668 -6.339375 -10.800416666666667 -6.574166666666668Z" stroke-width="2.5"></path>
    <path stroke="#191a1a" stroke-linecap="round" stroke-linejoin="round" stroke-miterlimit="10" d="m53.40288541666667 15.836458333333335 -3.521875 4.695833333333334 4.695833333333334 4.695833333333334 -3.521875 10.565625 -11.739583333333336 3.521875" stroke-width="2.5"></path>
    <path stroke="#191a1a" stroke-linecap="round" stroke-linejoin="round" stroke-miterlimit="10" d="m24.053927083333335 33.44583333333334 16.43541666666667 -8.217708333333334V1.7489583333333334l-10.565625 7.04375H18.184207291666667l-10.565625 -7.04375v23.47916666666667l16.435344791666665 8.217708333333334Z" stroke-width="2.5"></path>
    <path stroke="#191a1a" stroke-linecap="round" stroke-linejoin="round" stroke-miterlimit="10" d="m28.750239583333336 21.706250000000004 -4.695833333333334 3.521875 -4.69588125 -3.521875" stroke-width="2.5"></path>
    <path stroke="#191a1a" stroke-linecap="round" stroke-linejoin="round" stroke-miterlimit="10" d="M19.358525000000004 15.836458333333335v-2.347916666666667" stroke-width="2.5"></path>
    <path stroke="#191a1a" stroke-linecap="round" stroke-linejoin="round" stroke-miterlimit="10" d="M28.75 15.836458333333335v-2.347916666666667" stroke-width="2.5"></path>
    <path stroke="#191a1a" stroke-linecap="round" stroke-linejoin="round" stroke-miterlimit="10" d="m32.97601041666667 28.98479166666667 6.339375 10.330833333333334 2.347916666666667 16.43541666666667 -11.739583333333336 -7.04375H19.358165624999998l-11.739583333333336 7.04375 2.347916666666667 -16.43541666666667 6.104583333333334 -9.86125" stroke-width="2.5"></path>
    <path stroke="#191a1a" stroke-linecap="round" stroke-linejoin="round" stroke-miterlimit="10" d="M12.314511458333333 20.53229166666667h-9.391666666666667" stroke-width="2.5"></path>
    <path stroke="#191a1a" stroke-linecap="round" stroke-linejoin="round" stroke-miterlimit="10" d="m12.314511458333333 25.228125 -9.391666666666667 2.347916666666667" stroke-width="2.5"></path>
    <path stroke="#191a1a" stroke-linecap="round" stroke-linejoin="round" stroke-miterlimit="10" d="M35.79351041666667 20.53229166666667h9.391666666666667" stroke-width="2.5"></path>
    <path stroke="#191a1a" stroke-linecap="round" stroke-linejoin="round" stroke-miterlimit="10" d="m35.79351041666667 25.228125 9.391666666666667 2.347916666666667" stroke-width="2.5"></path>
    <path stroke="#191a1a" stroke-linecap="round" stroke-linejoin="round" stroke-miterlimit="10" d="M24.054166666666667 25.228125v8.217708333333334" stroke-width="2.5"></path>
</svg>