<svg role="img" viewBox="0 0 60 60" xmlns="http://www.w3.org/2000/svg" id="Apachetomcat--Streamline-Simple-Icons" height="60" width="60">
    <desc>
        Apachetomcat Streamline Icon: https://streamlinehq.com
    </desc>
    <title>Apache Tomcat</title>
    <path d="M31.65 8.735000000000001c-0.9425 1.5925 -1.36 5.285 -1.255 7.904999999999999l-0.0125 0.01c0.09 2.3649999999999998 0.41250000000000003 4.54 0.9299999999999999 6.5375000000000005 -7.74 1.9175 -16.165 6.9875 -20.880000000000003 11.884999999999998 -2.205 -2.9749999999999996 -3.08 -5.42 -3.3400000000000003 -7.27 -0.3275 -2.3400000000000003 0.22999999999999998 -4.485 1.615 -6.205 2.1675 -2.6925 5.244999999999999 -2.8825000000000003 8.412500000000001 -2.3499999999999996 -0.0625 0.5 0.0025 0.9775 0.2025 1.275 0.8375 1.2349999999999999 5.3374999999999995 1.6700000000000002 8.025 0.47250000000000003 -1.9825000000000002 -2.7800000000000002 -6 -4.135 -7.109999999999999 -3.5925000000000002a1.905 1.905 0 0 0 -0.8375 0.8975c-1.095 -0.195 -2.1825 -0.3425 -2.9749999999999996 -0.335 -2.7925 0.02 -4.9275 0.9950000000000001 -6.5249999999999995 2.9825 -1.57 1.9500000000000002 -2.205 4.367500000000001 -1.835 7 0.35000000000000003 2.49 1.5825 5.1375 3.65 7.885 -0.34500000000000003 0.3675 -0.675 0.7324999999999999 -0.9950000000000001 1.09C3.6825 42.5575 0 48.6 0 49.605v0.5175h6.645l-0.11499999999999999 -0.615c-0.375 -1.9825000000000002 0.375 -4.4624999999999995 1.9075 -6.3149999999999995 0.9650000000000001 -1.1625 2.56 -2.49 5.067500000000001 -3.1025 2.2275 2.175 5.067500000000001 4.485 8.2275 6.7125h4.9399999999999995v-0.52a1.695 1.695 0 0 0 -0.8175 -1.4425c-0.78 -0.51 -1.985 -0.5800000000000001 -3.0925000000000002 -0.2025 -1.0525 -1.1749999999999998 -1.645 -2.745 -1.7725 -4.6925 10.7175 0.95 20.97 5.2749999999999995 32.5375 11.319999999999999h6.364999999999999l0.0825 -0.41750000000000004c0.12 -0.5925 -0.20500000000000002 -1.3900000000000001 -0.865 -2.1275 -1.1400000000000001 -1.275 -3.3725 -1.88 -5.237500000000001 -1.835 -1.2850000000000001 -1.53 -8.355 -8.977500000000001 -8.7675 -9.4125a24.064999999999998 24.064999999999998 0 0 0 6.6825 -7.1175h3.4699999999999998v-0.745H52.225a24.525000000000002 24.525000000000002 0 0 0 0.5575 -1.0474999999999999h2.4725v-0.7474999999999999h-2.1125c1.57 -3.3975 2.4375 -7.295 2.355 -11.5625l0.0075 0.005c-0.005 -1.1700000000000002 -0.3675 -6.1125 -1.0374999999999999 -7.4725 -1.815 0.6900000000000001 -5.117500000000001 2.925 -5.865 5.21a36.3925 36.3925 0 0 0 -11.1575 0.14c-0.5925 -2.46 -3.5575 -4.34 -5.795 -5.4zm0.41000000000000003 1.4425c0.5275 2.8699999999999997 1.4825 4.6725 3.55 5.557499999999999 1.835 -0.525 3.95 -0.8500000000000001 6.12 -0.97l1.7925 3.9274999999999998 1.1500000000000001 -3.9625c2.19 0.07250000000000001 4.34 0.355 6.2124999999999995 0.8724999999999999 1.905 -1.3850000000000002 2.6425 -3.5 3.045 -5.345 0.505 2.15 0.44499999999999995 6.7925 0.44999999999999996 6.7925a24.707499999999996 24.707499999999996 0 0 1 -0.395 4.97l-2.06 0.875 1.815 0.275a22.974999999999998 22.974999999999998 0 0 1 -0.495 1.785l-1.7574999999999998 0.5125 1.4000000000000001 0.5025000000000001c-0.235 0.6325000000000001 -0.5 1.25 -0.785 1.845h-2.9v0.7474999999999999h2.52a21.97 21.97 0 0 1 -0.595 1.0474999999999999h-1.925v0.745h1.4575a21.585 21.585 0 0 1 -7.302499999999999 6.870000000000001c-3.335 -1.6600000000000001 -5.852500000000001 -4.085 -7.697500000000001 -6.870000000000001h1.115v-0.745h-1.59a22.9875 22.9875 0 0 1 -0.59 -1.0474999999999999h2.18v-0.7474999999999999h-2.565a25.299999999999997 25.299999999999997 0 0 1 -1.1500000000000001 -2.7350000000000003l1.3050000000000002 -0.3675 -1.6475 -0.6575c-0.165 -0.5375 -0.3175 -1.075 -0.44999999999999996 -1.615l2.5374999999999996 -0.17250000000000001 -2.9 -1.5375c-0.705 -3.9074999999999998 -0.5625 -7.7 0.155 -10.5525zm7.365 7.425000000000001c-2.225 0 -3.1 2.2725 -3.1374999999999997 2.37l0.63 0.235c0.03 -0.0825 0.755 -1.9325 2.5075 -1.9325 0.385 0 0.655 0.155 0.8500000000000001 0.48750000000000004 0.45499999999999996 0.785 0.38 2.3325 0 3.95h-3.0675000000000003v0.6725000000000001h2.8975a14.197500000000002 14.197500000000002 0 0 1 -1.24 3.0625l-0.16 0.28 3.8425 2.4175 -2.1625 1.4249999999999998 0.37 0.56 2.4175 -1.5925 2.6075 1.7025000000000001 0.3575 -0.5700000000000001 -2.4175 -1.4949999999999999 3.795 -2.465v-0.0025c-0.795 -1.1749999999999998 -1.05 -2.18 -0.715 -3.3225h0.27l2.9175 -0.0025 0.005 -0.67h-2.9375c0.54 -1.275 1.3 -2.42 4.005 -2.42v-0.675c-2.4975 0 -3.99 0.9925 -4.7075 3.0949999999999998h-5.385c0.375 -1.6800000000000002 0.4425 -3.3325 -0.11499999999999999 -4.2875000000000005a1.575 1.575 0 0 0 -1.4249999999999998 -0.8250000000000001zm1.375 5.782500000000001h5.3149999999999995c-0.2375 0.76 -0.14250000000000002 1.9075 0.44499999999999995 2.8925h-6.8425c0.41500000000000004 -0.8350000000000001 0.8 -1.85 1.0825 -2.8925zm-9.2075 0.8025c0.3875 1.2875 0.8599999999999999 2.4925 1.4050000000000002 3.6275000000000004h-2.275v0.7474999999999999h2.6500000000000004c0.1875 0.355 0.3825 0.705 0.5825 1.0474999999999999H30.724999999999998v0.745h3.695c2.275 3.54 5.3500000000000005 6.2475000000000005 8.834999999999999 8.295a23.625 23.625 0 0 0 1.1400000000000001 -0.7000000000000001l0.905 0.9750000000000001 -1.525 2.3449999999999998 2.6 -1.185 1.515 1.6300000000000001 -2.5475 1.94 3.5075000000000003 -0.9075 4.7625 5.125 0.4 -0.035c2.5174999999999996 -0.21499999999999997 3.95 1.1500000000000001 4.325 1.575 0.28 0.31 0.4475 0.5925 0.5375 0.8150000000000001h-5.09c-11.675 -6.092499999999999 -21.927500000000002 -10.387500000000001 -32.8175 -11.325000000000001 0.025 -1.5175 0.29250000000000004 -3.2325 0.81 -5.145l-1 -0.27c-0.5325 1.965 -0.8125 3.7425 -0.8450000000000001 5.335 -1.135 -0.075 -2.275 -0.11499999999999999 -3.4275 -0.11499999999999999 -0.9775 0 -1.8675 0.09 -2.68 0.25a36.9275 36.9275 0 0 1 -2.725 -3.025c1.3650000000000002 -1.4249999999999998 2.9749999999999996 -2.8075 4.7325 -4.1075l2.4175 1.6700000000000002 -0.79 -2.82c0.7424999999999999 -0.5 1.5074999999999998 -0.9850000000000001 2.285 -1.45l3.585 1.825 -1.6825 -2.905c0.495 -0.265 0.9950000000000001 -0.525 1.4949999999999999 -0.775l5.0175 3.365 -1.6500000000000001 -4.88a38.3 38.3 0 0 1 5.084999999999999 -1.6675zm8.73 2.7625h5.550000000000001l-2.71 1.7874999999999999zM10.382499999999999 36.6875c0.6825000000000001 0.8425 1.4425 1.695 2.275 2.5524999999999998a10.26 10.26 0 0 0 -5.0175 3.29c-1.5725 1.9 -2.405 4.405 -2.215 6.555H1.2375c0.8425 -1.8199999999999998 4.1925 -7.0825000000000005 9.145 -12.397499999999999z" fill="#ffffff" stroke-width="2.5"></path>
</svg>