<svg viewBox="0 0 24 24" fill="none" xmlns="http://www.w3.org/2000/svg" id="Upload--Streamline-Solar-Broken" height="24" width="24">
    <desc>
        Upload Streamline Icon: https://streamlinehq.com
    </desc>
    <path d="m12 15 0 -13m0 0 3 3.5M12 2 9 5.5" stroke="#1A1A1A" stroke-linecap="round" stroke-linejoin="round" stroke-width="1.5"></path>
    <path d="M8 22.0002h8c2.8284 0 4.2426 0 5.1213 -0.8787C22 20.2429 22 18.8286 22 16.0002v-1c0 -2.8284 0 -4.2426 -0.8787 -5.1213 -0.7684 -0.76839 -1.9463 -0.86484 -4.1213 -0.87695m-10 0c-2.17503 0.01211 -3.35294 0.10856 -4.12132 0.87694C2 10.7576 2 12.1718 2 15.0002l0 1c0 2.8284 0 4.2427 0.87868 5.1213 0.2998 0.2998 0.66194 0.4973 1.12132 0.6275" stroke="#1A1A1A" stroke-linecap="round" stroke-width="1.5"></path>
</svg>
